<svg width="139" height="139" viewBox="0 0 139 139" fill="none" xmlns="http://www.w3.org/2000/svg">
<path d="M59.7273 98L54.5455 89.4667L44.7273 87.3333L45.6818 77.4667L39 70L45.6818 62.5333L44.7273 52.6667L54.5455 50.5333L59.7273 42L69 45.8667L78.2727 42L83.4545 50.5333L93.2727 52.6667L92.3182 62.5333L99 70L92.3182 77.4667L93.2727 87.3333L83.4545 89.4667L78.2727 98L69 94.1333L59.7273 98ZM66.1364 79.4667L81.5455 64.4L77.7273 60.5333L66.1364 71.8667L60.2727 66.2667L56.4545 70L66.1364 79.4667Z" fill="#8EC09E"/>
<path d="M69.5 1C107.332 1 138 31.6685 138 69.5C138 107.332 107.332 138 69.5 138C31.6685 138 1 107.332 1 69.5C1 31.6685 31.6685 1 69.5 1Z" stroke="#2C5B42" stroke-width="2"/>
</svg>
