<svg width="139" height="139" viewBox="0 0 139 139" fill="none" xmlns="http://www.w3.org/2000/svg">
<path d="M69.5 1C107.332 1 138 31.6685 138 69.5C138 107.332 107.332 138 69.5 138C31.6685 138 1 107.332 1 69.5C1 31.6685 31.6685 1 69.5 1Z" stroke="#2C5B42" stroke-width="2"/>
<g clip-path="url(#clip0_756_8415)">
<path d="M92.25 97H94.5V94.75L92.25 97ZM71.25 89.125C68.625 86.5 67.5 82.375 68.25 78.625C69 74.875 71.25 71.875 74.625 70.75C74.625 70.375 74.25 70 74.25 70C74.25 67.75 77.25 68.5 79.5 64.375C79.5 64.375 89.625 37 68.625 37C48 37 58.125 64.375 58.125 64.375C60.375 68.125 63.375 67.375 63.375 70C63.375 72.625 60.75 72.625 58.125 73C54 73.375 50.25 72.625 46.5 79.375C44.25 83.5 43.125 97 43.125 97H79.125L71.25 89.125Z" fill="#8EC09E"/>
<path d="M94.875 74.875C94.125 74.5 93 74.5 92.25 74.5C89.625 74.5 87.375 76.75 85.875 78.625C84.375 76.75 82.125 74.5 79.5 74.5C78.375 74.5 77.625 74.5 76.875 74.875C72.375 76.375 71.625 82.375 75 85.75L86.25 96.625L97.5 85.75C100.5 82.375 99.375 76.375 94.875 74.875Z" fill="#8EC09E"/>
</g>
<defs>
<clipPath id="clip0_756_8415">
<rect width="60" height="60" fill="white" transform="translate(39 37)"/>
</clipPath>
</defs>
</svg>
