<svg width="139" height="139" viewBox="0 0 139 139" fill="none" xmlns="http://www.w3.org/2000/svg">
<path d="M69.5 1C107.332 1 138 31.6685 138 69.5C138 107.332 107.332 138 69.5 138C31.6685 138 1 107.332 1 69.5C1 31.6685 31.6685 1 69.5 1Z" stroke="#2C5B42" stroke-width="2"/>
<path d="M86.4583 56.3333C61.3333 61.9167 55.4708 79.1412 49.6641 93.5742L54.9403 95.4167L57.5924 88.9958C58.9324 89.4704 60.3283 89.8333 61.3333 89.8333C92.0416 89.8333 100.417 42.375 100.417 42.375C97.6249 47.9583 78.0833 48.6562 64.1249 51.4479C50.1666 54.2396 44.5833 66.1042 44.5833 71.6875C44.5833 77.2708 49.4687 82.1562 49.4687 82.1562C58.5416 56.3333 86.4583 56.3333 86.4583 56.3333Z" fill="#8EC09E"/>
</svg>
