<svg width="139" height="139" viewBox="0 0 139 139" fill="none" xmlns="http://www.w3.org/2000/svg">
<path d="M69.5 1C107.332 1 138 31.6685 138 69.5C138 107.332 107.332 138 69.5 138C31.6685 138 1 107.332 1 69.5C1 31.6685 31.6685 1 69.5 1Z" stroke="#2C5B42" stroke-width="2"/>
<path d="M86.75 46.75C84.1625 46.75 81 49.625 81 52.5H58C58 49.625 54.8375 46.75 52.25 46.75H40.75V72.625C40.75 75.5 43.625 78.375 46.5 78.375H52.825C53.975 84.125 57.7125 89.0125 66.625 89.875V95.855C58 97.1775 58 104.25 58 104.25H81C81 104.25 81 97.1775 72.375 95.855V89.875C81.2875 89.0125 85.025 84.125 86.175 78.375H92.5C95.375 78.375 98.25 75.5 98.25 72.625V46.75H86.75ZM52.25 72.625H46.5V52.5H52.25V72.625ZM92.5 72.625H86.75V52.5H92.5V72.625Z" fill="#8EC09E"/>
</svg>
