<svg width="139" height="139" viewBox="0 0 139 139" fill="none" xmlns="http://www.w3.org/2000/svg">
<path d="M99.6379 41.857C99.6148 41.7447 99.5601 41.6414 99.4802 41.5591C99.4004 41.4768 99.2988 41.4189 99.1873 41.3923C91.7516 39.5744 74.5711 46.0528 65.2628 55.3572C63.6027 57.004 62.0891 58.7923 60.7395 60.7019C57.8691 60.448 54.9987 60.66 52.5523 61.7264C45.6499 64.7644 43.6402 72.6914 43.0803 76.1013C43.0486 76.288 43.0605 76.4794 43.1153 76.6606C43.1701 76.8419 43.2662 77.0079 43.396 77.1457C43.5258 77.2835 43.6858 77.3894 43.8634 77.4549C44.0411 77.5204 44.2315 77.5437 44.4197 77.5232L55.504 76.3006C55.5119 77.1363 55.5623 77.971 55.655 78.8016C55.7108 79.3784 55.9668 79.9174 56.3787 80.325L60.671 84.6072C61.079 85.0184 61.6178 85.2743 62.1944 85.3308C63.0203 85.4231 63.8504 85.4735 64.6814 85.4819L63.4652 96.5522C63.4449 96.7403 63.4685 96.9306 63.5341 97.1081C63.5997 97.2856 63.7055 97.4455 63.8432 97.5753C63.981 97.705 64.1469 97.8011 64.328 97.856C64.5091 97.9109 64.7005 97.923 64.8871 97.8915C68.2907 97.3456 76.2316 95.336 79.2518 88.4335C80.3182 85.9872 80.5366 83.1307 80.2903 80.2743C82.2045 78.9245 83.9975 77.4106 85.649 75.7497C94.9864 66.4592 101.428 49.6621 99.6379 41.857ZM76.3332 64.6666C75.4805 63.8146 74.8998 62.7288 74.6643 61.5466C74.4289 60.3644 74.5493 59.139 75.0104 58.0252C75.4715 56.9115 76.2526 55.9596 77.2548 55.2898C78.257 54.62 79.4353 54.2626 80.6407 54.2626C81.8461 54.2626 83.0244 54.62 84.0266 55.2898C85.0288 55.9596 85.8098 56.9115 86.271 58.0252C86.7321 59.139 86.8525 60.3644 86.617 61.5466C86.3816 62.7288 85.8008 63.8146 84.9482 64.6666C84.3828 65.2328 83.7114 65.682 82.9722 65.9885C82.2331 66.2949 81.4408 66.4527 80.6407 66.4527C79.8405 66.4527 79.0482 66.2949 78.3091 65.9885C77.57 65.682 76.8985 65.2328 76.3332 64.6666Z" fill="#8EC09E"/>
<path d="M60.3789 87.7089C59.6832 88.4059 58.5673 88.6775 57.2241 88.9099C54.2064 89.424 51.5417 86.8164 52.0838 83.7657C52.2907 82.6092 52.9026 80.988 53.2835 80.6071C53.3667 80.5255 53.4222 80.4197 53.4419 80.3048C53.4616 80.1899 53.4446 80.0717 53.3933 79.9669C53.342 79.8622 53.259 79.7764 53.1561 79.7215C53.0532 79.6666 52.9356 79.6456 52.8201 79.6613C51.1326 79.8678 49.5627 80.6329 48.3603 81.8348C45.3756 84.822 45.0938 95.9063 45.0938 95.9063C45.0938 95.9063 56.1844 95.6244 59.169 92.6372C60.3746 91.4357 61.1406 89.8634 61.3438 88.1735C61.3907 87.6429 60.7445 87.3268 60.3789 87.7089Z" fill="#8EC09E"/>
<path d="M69.5 1C107.332 1 138 31.6685 138 69.5C138 107.332 107.332 138 69.5 138C31.6685 138 1 107.332 1 69.5C1 31.6685 31.6685 1 69.5 1Z" stroke="#2C5B42" stroke-width="2"/>
</svg>
