<svg width="139" height="139" viewBox="0 0 139 139" fill="none" xmlns="http://www.w3.org/2000/svg">
<path d="M69.5 1C107.332 1 138 31.6685 138 69.5C138 107.332 107.332 138 69.5 138C31.6685 138 1 107.332 1 69.5C1 31.6685 31.6685 1 69.5 1Z" stroke="#2C5B42" stroke-width="2"/>
<path d="M70.9574 47H70.0426L62.5244 62.0439H78.4756L70.9574 47ZM83.2495 62.0439H98L92.0826 50.1807C91.6093 49.2259 90.8797 48.4223 89.9757 47.8604C89.0718 47.2986 88.0293 47.0006 86.9657 47H75.7313L83.2495 62.0439ZM97.3139 66.3421H72.644V96L97.3139 66.3421ZM68.356 96V66.3421H43.6861L68.356 96ZM57.7505 62.0439L65.2401 47H54.0343C52.9707 47.0006 51.9282 47.2986 51.0243 47.8604C50.1203 48.4223 49.3907 49.2259 48.9174 50.1807L43 62.0439H57.7505Z" fill="#8EC09E"/>
</svg>
