<svg width="116" height="116" viewBox="0 0 116 116" fill="none" xmlns="http://www.w3.org/2000/svg">
<circle opacity="0.2" cx="58" cy="58" r="58" fill="#8EC09E"/>
<circle cx="57.9997" cy="58.0002" r="38.6667" fill="#2C5B42"/>
<path d="M72.2843 47.2454C71.8192 47.2593 71.3778 47.4536 71.0536 47.7873L52.6279 66.213L46.7331 60.3182C46.5681 60.1464 46.3706 60.0092 46.1519 59.9147C45.9333 59.8203 45.698 59.7703 45.4599 59.7679C45.2217 59.7655 44.9855 59.8106 44.765 59.9006C44.5445 59.9907 44.3441 60.1238 44.1757 60.2922C44.0073 60.4606 43.8742 60.6609 43.7842 60.8814C43.6942 61.1019 43.649 61.3382 43.6515 61.5763C43.6539 61.8145 43.7038 62.0498 43.7983 62.2684C43.8928 62.487 44.0299 62.6846 44.2018 62.8496L51.3622 70.01C51.698 70.3456 52.1532 70.5341 52.6279 70.5341C53.1026 70.5341 53.5579 70.3456 53.8936 70.01L73.5849 50.3187C73.8436 50.0672 74.0203 49.7435 74.0918 49.3899C74.1634 49.0363 74.1264 48.6694 73.9858 48.3372C73.8452 48.005 73.6075 47.723 73.3039 47.5281C73.0003 47.3333 72.6449 47.2348 72.2843 47.2454Z" fill="white"/>
</svg>
