<svg width="139" height="139" viewBox="0 0 139 139" fill="none" xmlns="http://www.w3.org/2000/svg">
<path d="M69.5 1C107.332 1 138 31.6685 138 69.5C138 107.332 107.332 138 69.5 138C31.6685 138 1 107.332 1 69.5C1 31.6685 31.6685 1 69.5 1Z" stroke="#2C5B42" stroke-width="2"/>
<path d="M98.0098 76.332L90.7258 88.7096C89.2982 91.168 86.6468 92.4544 83.9663 92.2828H78.1391V98L70.8551 85.1364L78.1391 72.2728V77.99H86.3554L79.8872 66.9845L92.5031 59.838L97.7476 68.7568C99.2627 70.9579 99.4666 73.9022 98.0098 76.332ZM61.2693 41H75.8373C78.6926 41 81.1692 42.6294 82.3638 44.9734L85.2774 49.9473L90.3179 47.0888L82.626 59.6951L67.621 59.9524L72.6615 57.0938L68.5533 50.0903L62.1142 61.0958L49.4692 53.9493L54.7137 45.0306C55.9083 42.658 58.3848 41 61.2693 41ZM49.1487 88.7382L41.8647 76.3606C40.437 73.9308 40.641 71.015 42.1269 68.8139L45.0405 63.8686L40 61.01L54.9759 61.2387L62.697 73.8736L57.6564 71.015L53.5483 77.99H66.4846V92.2828H55.9957C54.6307 92.3798 53.2653 92.099 52.0549 91.4723C50.8445 90.8457 49.8376 89.8984 49.1487 88.7382Z" fill="#8EC09E"/>
</svg>
