<svg width="139" height="139" viewBox="0 0 139 139" fill="none" xmlns="http://www.w3.org/2000/svg">
<path d="M69.5 1C107.332 1 138 31.6685 138 69.5C138 107.332 107.332 138 69.5 138C31.6685 138 1 107.332 1 69.5C1 31.6685 31.6685 1 69.5 1Z" stroke="#2C5B42" stroke-width="2"/>
<path d="M64.4167 82.2087L54.25 72.042L57.8337 68.4582L64.4167 75.0157L81.1663 58.2662L84.75 61.8753M69.5 41.542L46.625 51.7087V66.9587C46.625 81.0649 56.385 94.2562 69.5 97.4587C82.615 94.2562 92.375 81.0649 92.375 66.9587V51.7087L69.5 41.542Z" fill="#8EC09E"/>
</svg>
